# xmcd
#
# Track frame offsets: 
#        150
#        15467
#        35701
#        50559
#        67543
#        88163
#        111698
#        132246
#        147271
#        163569
#        180639
#        204337
#        220022
#
# Disc length: 3187 seconds
#
# Revision: 0
# Processed by: cddbd v1.5.2PL0 Copyright (c) Steve Scherf et al.
# Submitted via: ExactAudioCopy v1.3
#
DISCID=b60c710d
DTITLE=Mighty Mike Schermer - Blues In Good Hands
DYEAR=2015
DGENRE=Electric Blues, Rhythm and Blues
TTITLE0=Baby Don't Stop
TTITLE1=Heaven's On The Other Side
TTITLE2=It's A Pleasure
TTITLE3=One Tear At A Time
TTITLE4=World Gone Crazy
TTITLE5=Blues In Good Hands
TTITLE6=Wait-On-Me-Woman
TTITLE7=Most People
TTITLE8=Barkin' Up The Wrong Tree
TTITLE9=Take My Hand
TTITLE10=Stop Crying
TTITLE11=Baby Be Kind
TTITLE12=Hear You Call Him Baby
EXTD=
EXTT0=
EXTT1=
EXTT2=
EXTT3=
EXTT4=
EXTT5=
EXTT6=
EXTT7=
EXTT8=
EXTT9=
EXTT10=
EXTT11=
EXTT12=
PLAYORDER=
